<svg xmlns="http://www.w3.org/2000/svg" viewBox="0 0 171.85 66.66"><defs><style>.cls-1{fill:#b5d0f5;}.cls-2{fill:#a5bcb4;}</style></defs><g id="Layer_2" data-name="Layer 2"><g id="Layer_1-2" data-name="Layer 1"><path class="cls-1" d="M58.07,26.1H53.5l-7-23.76h4.18L55.87,23l5.22-20.7h4L70.3,23.07,75.52,2.34h4L72.54,26.1H68L64.22,11.84,63,6.37h0l-1.19,5.47Z"/><path class="cls-1" d="M98.92,17.1c0,5.86-3.34,9.36-9,9.36S81,23,81,17.1s3.35-9.36,9-9.36S98.92,11.23,98.92,17.1Zm-14,0c0,4.07,1.83,6.33,5.07,6.33s5.11-2.26,5.11-6.33S93.2,10.76,90,10.76,84.89,13,84.89,17.1Z"/><path class="cls-1" d="M115.12,8.1l-.61,3.53a4.67,4.67,0,0,0-2.26-.47c-2.16,0-4.54,1.73-4.54,5.4V26.1h-3.85V8.1h3.27l.36,3.2a5.62,5.62,0,0,1,5.66-3.56A4.72,4.72,0,0,1,115.12,8.1Z"/><path class="cls-1" d="M126.18,17.64l-3.57,3.71V26.1h-3.85V0h3.85V16.92l8.61-8.82h4.53l-6.87,7.05,7.3,11h-4.46Z"/><path class="cls-2" d="M68.27,39.8l-2.91,2.63c-1.33-2.84-3.17-4.1-6.55-4.1s-5.22,1.51-5.22,3.52,1.47,2.92,6.08,3.75c6.37,1.11,8.71,3.09,8.71,6.91,0,4.25-3.85,7-9.46,7-5.19,0-8.39-1.88-10.23-4.83l2.7-2.7c1.55,2.88,3.93,4.18,7.49,4.18,3.38,0,5.47-1.19,5.47-3.38,0-1.7-1.44-2.67-5.9-3.5-6.52-1.22-8.93-3.2-8.93-7,0-4,3.46-7.27,9.25-7.27C63.16,35,66.19,36.56,68.27,39.8Z"/><path class="cls-2" d="M90.74,50.06c0,5.9-3.1,9.4-8,9.4A6.36,6.36,0,0,1,77,56.18V66.66H73.1V41.1h3.38l.18,3.31a6.52,6.52,0,0,1,6.12-3.67C87.68,40.74,90.74,44.19,90.74,50.06Zm-3.85,0c0-3.93-1.87-6.27-5-6.27s-5,2.27-5,6.05v.43c0,3.75,2,6,5,6S86.89,54,86.89,50.1Z"/><path class="cls-2" d="M112.59,56.43,112.34,59a5.45,5.45,0,0,1-2.23.44c-2,0-3.28-.72-3.67-2.7-1.12,1.72-3.42,2.7-6.09,2.7-3.38,0-5.86-1.59-5.86-4.72,0-2.77,2.3-4.82,7-5.65l4.58-.83v-.93a3.35,3.35,0,0,0-3.68-3.57A4.46,4.46,0,0,0,97.76,47l-3-1.58c.87-2.84,3.64-4.68,7.56-4.68,4.5,0,7.6,2,7.6,6.37v8.14c0,.9.36,1.33,1.33,1.33A5.06,5.06,0,0,0,112.59,56.43Zm-6.51-3.31V51l-3.93.79c-2.45.47-3.67,1.3-3.67,2.74s1,2,2.7,2C103.59,56.54,106.08,55.28,106.08,53.12Z"/><path class="cls-2" d="M131.92,45.78l-3.6,1.44c-.61-2.23-2-3.42-4.21-3.42-3.2,0-5.07,2.27-5.07,6.33s1.9,6.27,5.07,6.27a4.09,4.09,0,0,0,4.43-3.49l3.53,1.18c-1,3.28-3.71,5.37-7.89,5.37-5.68,0-9-3.5-9-9.36s3.35-9.36,9-9.36C128.47,40.74,130.81,42.83,131.92,45.78Z"/><path class="cls-2" d="M152.52,51.54H139.34c.43,3.17,2.3,4.86,5.22,4.86,2.38,0,4-.87,4.54-2.45l3.2,1.33c-1.3,2.66-3.78,4.18-7.74,4.18-5.69,0-9-3.5-9-9.36s3.16-9.36,8.78-9.36c5.4,0,8.35,3.6,8.35,8.82A15.44,15.44,0,0,1,152.52,51.54Zm-13.14-2.95h9.68c-.36-3-2.05-4.79-4.75-4.79C141.46,43.8,139.77,45.49,139.38,48.59Z"/><path class="cls-2" d="M156,55.68l2.59-2.23c.94,2.16,3.06,3,5.58,3S168,55.5,168,54.27s-1.05-1.76-4.18-2.37c-5.36-1-7.23-2.56-7.23-5.58s2.73-5.58,7.55-5.58c4,0,6.27,1.3,7.56,4.07l-2.73,2a4.64,4.64,0,0,0-4.79-3.06c-2.23,0-3.74,1.08-3.74,2.2,0,1.29,1,2,4.42,2.59,5.15.94,7,2.48,7,5.47,0,3.17-2.88,5.44-7.85,5.44C160.51,59.46,157.48,58.3,156,55.68Z"/><path class="cls-2" d="M36.1,35H1.5A1.5,1.5,0,0,0,0,36.51H0A1.5,1.5,0,0,0,1.5,38H7.15V57.93a1.5,1.5,0,0,0,1.5,1.5h0a1.5,1.5,0,0,0,1.5-1.5V38H27.44V57.93a1.5,1.5,0,0,0,1.5,1.5h0a1.5,1.5,0,0,0,1.5-1.5V38H36.1a1.5,1.5,0,0,0,1.5-1.5h0A1.5,1.5,0,0,0,36.1,35Z"/><path class="cls-1" d="M33.69,1.48H4A3.91,3.91,0,0,0,.13,5.39v16.8A3.92,3.92,0,0,0,4,26.1H14.18c-1.34,2.22-2.47,4.34-2.23,5.07.16.49,3.19.69,6.47.69,3.79,0,7.9-.27,8.35-.69s-.8-2.65-2.39-5.07h9.31a3.92,3.92,0,0,0,3.91-3.91V5.39A3.92,3.92,0,0,0,33.69,1.48ZM24,29.18c-1.34.12-3.3.21-5.56.21-1.59,0-2.76,0-3.61-.1.22-.73,1.51-2.61,1.72-3.19H22C22.26,26.66,23.74,28.48,24,29.18Zm11.23-7a1.52,1.52,0,0,1-1.52,1.52H4a1.52,1.52,0,0,1-1.52-1.52V5.39A1.52,1.52,0,0,1,4,3.87H33.69a1.52,1.52,0,0,1,1.52,1.52Z"/></g></g></svg>